<?xml version="1.0" standalone="no"?>
<!DOCTYPE svg PUBLIC "-//W3C//DTD SVG 20010904//EN"
 "http://www.w3.org/TR/2001/REC-SVG-20010904/DTD/svg10.dtd">
<svg version="1.0" xmlns="http://www.w3.org/2000/svg"
 width="604.000000pt" height="181.000000pt" viewBox="0 0 604.000000 181.000000"
 preserveAspectRatio="xMidYMid meet">

<g transform="translate(0.000000,181.000000) scale(0.100000,-0.100000)"
fill="#fff" stroke="none">
<path d="M5105 1630 c-49 -3 -85 -8 -80 -10 6 -2 -244 -7 -554 -10 -439 -4
-565 -8 -569 -17 -3 -10 -112 -13 -503 -13 -344 0 -499 -3 -499 -11 0 -5 -4
-7 -10 -4 -5 3 -10 1 -10 -4 0 -6 -20 -11 -44 -11 -24 0 -46 -5 -48 -11 -2 -5
-22 -13 -46 -16 -46 -6 -54 -17 -19 -27 12 -3 613 -6 1335 -6 l1312 0 39 -40
c21 -22 44 -40 50 -40 6 0 11 -7 11 -15 0 -8 7 -15 15 -15 8 0 15 -7 15 -15 0
-8 7 -15 15 -15 8 0 15 -7 15 -15 0 -8 7 -15 15 -15 10 0 15 -10 15 -30 0 -20
-5 -30 -15 -30 -10 0 -15 -10 -15 -30 0 -20 -5 -30 -15 -30 -9 0 -15 -9 -15
-25 0 -16 -6 -25 -15 -25 -8 0 -15 -7 -15 -15 0 -8 -4 -15 -9 -15 -5 0 -12
-12 -16 -27 -3 -15 -17 -37 -30 -49 -13 -12 -27 -34 -31 -48 -3 -14 -10 -26
-14 -26 -4 0 -11 -11 -14 -25 -4 -14 -11 -25 -16 -25 -6 0 -10 -7 -10 -15 0
-8 -7 -15 -15 -15 -10 0 -15 -10 -15 -30 0 -20 -5 -30 -15 -30 -8 0 -15 -7
-15 -15 0 -8 -7 -15 -15 -15 -9 0 -15 -9 -15 -25 0 -13 -6 -28 -14 -32 -7 -4
-16 -19 -20 -33 -3 -14 -3 -19 0 -12 3 6 12 12 20 12 8 0 14 7 14 15 0 8 7 15
15 15 8 0 15 7 15 15 0 8 7 15 15 15 8 0 15 7 15 15 0 8 7 15 15 15 8 0 15 5
15 10 0 6 11 21 25 34 14 13 25 28 25 35 0 6 7 11 15 11 8 0 15 4 15 10 0 11
20 37 63 82 15 16 27 33 27 38 0 6 7 10 15 10 8 0 15 7 15 15 0 8 7 15 15 15
8 0 15 7 15 15 0 8 7 15 15 15 8 0 15 7 15 15 0 8 7 15 15 15 8 0 15 5 15 11
0 6 18 29 40 50 22 22 40 41 40 44 0 3 8 14 18 24 38 42 42 52 42 91 0 29 -4
40 -15 40 -8 0 -15 7 -15 15 0 8 -5 15 -11 15 -14 0 -99 85 -99 99 0 6 -7 11
-15 11 -8 0 -15 7 -15 15 0 8 -7 15 -15 15 -8 0 -15 7 -15 15 0 8 -7 15 -15
15 -8 0 -15 7 -15 15 0 8 -7 15 -15 15 -8 0 -15 7 -15 15 0 13 -23 15 -152 13
-84 -1 -193 -5 -243 -8z"/>
<path d="M5270 1335 c0 -8 7 -15 15 -15 8 0 15 7 15 15 0 8 -7 15 -15 15 -8 0
-15 -7 -15 -15z"/>
<path d="M777 1278 c-8 -5 -6 -8 6 -8 10 0 17 -8 17 -20 0 -16 7 -20 30 -20
17 0 30 -4 30 -10 0 -5 11 -12 24 -16 28 -7 42 -44 22 -59 -7 -6 -16 -20 -20
-33 -4 -12 -11 -22 -16 -22 -4 0 -11 -11 -14 -25 -4 -14 -11 -25 -16 -25 -6 0
-10 -7 -10 -15 0 -9 -7 -18 -15 -21 -8 -4 -15 -17 -15 -30 0 -15 -6 -24 -15
-24 -8 0 -15 -9 -15 -20 0 -11 -7 -20 -15 -20 -9 0 -15 -9 -15 -25 0 -16 -6
-25 -15 -25 -9 0 -15 -9 -15 -24 0 -13 -7 -26 -15 -30 -9 -3 -15 -18 -15 -36
0 -20 5 -30 15 -30 8 0 15 -7 15 -15 0 -8 7 -15 15 -15 8 0 15 -7 15 -15 0 -8
5 -15 10 -15 6 0 21 -11 34 -25 l24 -25 410 0 c270 1 412 4 414 11 2 6 22 13
46 16 23 3 42 9 42 13 0 4 12 11 26 14 35 9 94 68 94 95 0 12 6 21 15 21 8 0
15 6 15 14 0 8 6 17 13 19 9 4 8 8 -3 16 -9 7 -82 11 -187 11 l-173 0 0 -30
c0 -20 -5 -30 -15 -30 -8 0 -15 -7 -15 -15 0 -13 -29 -15 -200 -15 -171 0
-200 2 -200 15 0 8 5 15 10 15 6 0 10 7 10 15 0 8 9 24 20 35 11 11 20 25 20
30 0 6 5 10 10 10 6 0 10 6 10 14 0 8 6 21 14 28 7 8 17 24 20 36 4 12 12 22
17 22 5 0 9 9 9 20 0 11 7 20 15 20 9 0 15 9 15 25 0 14 7 28 15 31 8 4 15 12
15 20 0 8 7 14 15 14 8 0 15 7 15 15 0 13 25 15 188 13 l187 -3 -3 -27 -3 -28
176 0 c149 0 175 2 175 15 0 8 7 15 15 15 8 0 15 7 15 15 0 8 4 15 9 15 5 0
13 10 17 23 4 12 9 24 13 27 20 16 28 47 17 66 -11 18 -28 19 -674 19 -365 0
-669 -3 -675 -7z"/>
<path d="M2300 1265 c0 -19 7 -26 27 -31 15 -4 34 -13 41 -21 7 -7 19 -13 27
-13 7 0 16 -7 19 -16 7 -19 -3 -64 -15 -64 -5 0 -9 -7 -9 -15 0 -8 -6 -15 -14
-15 -8 0 -17 -13 -21 -30 -4 -16 -11 -30 -16 -30 -5 0 -9 -7 -9 -15 0 -8 -7
-15 -15 -15 -9 0 -15 -9 -15 -24 0 -13 -7 -26 -15 -30 -8 -3 -15 -17 -15 -31
0 -16 -6 -25 -15 -25 -8 0 -15 -6 -15 -14 0 -8 -7 -16 -15 -20 -8 -3 -15 -9
-14 -13 4 -25 -3 -43 -16 -43 -10 0 -15 -10 -15 -30 0 -20 5 -30 15 -30 8 0
15 -7 15 -15 0 -8 5 -15 10 -15 6 0 21 -11 34 -25 13 -14 28 -25 35 -25 6 0
11 -7 11 -15 0 -13 53 -15 415 -15 252 0 415 4 415 9 0 6 20 13 45 17 25 3 45
10 45 14 0 5 14 11 30 15 17 4 30 11 30 16 0 5 7 9 15 9 8 0 15 7 15 15 0 8 7
15 15 15 8 0 15 9 15 20 0 11 4 20 10 20 5 0 12 11 16 25 3 14 10 25 15 25 5
0 9 7 9 15 0 13 -25 15 -169 15 -93 0 -176 -3 -185 -6 -9 -3 -16 -17 -16 -30
0 -15 -6 -24 -15 -24 -8 0 -15 -7 -15 -15 0 -13 -29 -15 -200 -15 -171 0 -200
2 -200 15 0 8 7 15 15 15 8 0 15 7 15 15 0 8 4 15 9 15 5 0 12 14 16 30 4 17
10 30 15 30 4 0 11 11 14 25 4 14 11 25 16 25 6 0 10 7 10 15 0 9 7 18 15 21
8 4 15 17 15 30 0 15 6 24 15 24 8 0 15 6 15 14 0 8 7 16 15 20 8 3 15 17 15
31 0 16 6 25 15 25 8 0 15 7 15 15 0 13 26 15 178 15 97 0 187 -3 200 -6 22
-6 32 -26 10 -21 -6 1 -14 -6 -16 -15 -3 -17 10 -18 172 -18 111 0 176 4 176
10 0 6 7 10 15 10 8 0 15 9 15 19 0 10 7 21 15 25 8 3 15 14 15 25 0 10 7 21
15 25 8 3 15 12 15 21 0 8 5 15 10 15 6 0 10 7 10 15 0 8 -6 14 -12 12 -7 -1
-12 3 -11 8 1 7 -218 8 -647 5 -356 -3 -646 -2 -643 3 2 4 -5 7 -16 7 -16 0
-21 -6 -21 -25z"/>
<path d="M3800 1279 c0 -4 7 -9 15 -13 8 -3 15 -12 15 -21 0 -9 9 -15 25 -15
14 0 25 -4 25 -9 0 -5 14 -12 30 -16 43 -9 46 -61 6 -98 -14 -13 -28 -35 -31
-50 -4 -15 -11 -27 -16 -27 -5 0 -9 -7 -9 -15 0 -8 -7 -15 -15 -15 -9 0 -15
-9 -15 -25 0 -14 -7 -28 -15 -31 -8 -4 -15 -17 -15 -30 0 -15 -6 -24 -15 -24
-8 0 -15 -7 -15 -15 0 -8 -7 -15 -15 -15 -10 0 -15 -10 -15 -30 0 -20 -5 -30
-15 -30 -8 0 -15 -7 -15 -15 0 -8 -5 -15 -11 -15 -6 0 -17 -7 -25 -15 -9 -8
-24 -15 -35 -15 -10 0 -19 -4 -19 -9 0 -5 -31 -19 -70 -32 -38 -12 -67 -26
-65 -30 3 -3 -4 -9 -15 -12 -11 -3 -20 -10 -20 -16 0 -8 73 -11 240 -11 223 0
241 1 259 19 10 10 22 28 26 40 3 12 11 21 16 21 5 0 9 7 9 15 0 8 7 15 15 15
10 0 15 10 15 30 0 20 5 30 15 30 8 0 15 5 15 11 0 6 7 17 15 25 8 9 15 24 15
35 0 10 7 19 15 19 9 0 15 9 15 25 0 14 4 25 9 25 5 0 16 3 24 6 11 4 17 -4
22 -25 4 -17 10 -31 15 -31 5 0 11 -13 15 -30 4 -16 10 -30 13 -30 4 0 16 -20
27 -45 16 -37 24 -45 47 -45 14 0 33 7 42 15 8 8 22 15 30 15 9 0 16 7 16 15
0 9 9 15 25 15 14 0 28 7 31 15 4 8 17 15 30 15 15 0 24 6 24 15 0 10 10 15
30 15 20 0 30 5 30 15 0 8 7 15 15 15 8 0 15 4 15 9 0 5 14 12 30 16 17 4 30
11 30 16 0 5 9 9 19 9 17 0 18 -3 8 -25 -7 -14 -15 -25 -19 -25 -3 0 -9 -13
-13 -30 -4 -16 -11 -30 -16 -30 -5 0 -9 -7 -9 -15 0 -8 -7 -15 -15 -15 -9 0
-15 -9 -15 -25 0 -14 -7 -28 -15 -31 -8 -4 -15 -12 -15 -19 0 -7 -7 -15 -15
-19 -9 -3 -15 -18 -15 -36 0 -21 -4 -29 -12 -24 -7 4 -8 3 -4 -4 5 -8 57 -12
166 -12 l160 0 6 24 c3 14 12 27 20 30 8 3 14 12 14 21 0 8 4 15 10 15 5 0 12
11 16 25 3 14 10 25 14 25 4 0 11 12 15 27 3 15 18 37 31 50 14 13 26 32 27
43 1 11 7 20 14 20 7 0 13 9 13 20 0 11 7 20 15 20 9 0 15 9 15 25 0 16 6 25
15 25 10 0 15 10 15 30 0 20 5 30 15 30 8 0 15 7 15 15 0 8 4 15 10 15 5 0 12
11 16 24 3 14 12 27 20 30 25 9 15 48 -21 82 -18 19 -38 34 -43 34 -6 0 -12 7
-16 15 -4 11 -22 15 -71 15 -46 0 -71 -5 -81 -15 -9 -8 -24 -15 -35 -15 -10 0
-19 -4 -19 -10 0 -5 -11 -12 -25 -16 -14 -3 -25 -10 -25 -14 0 -5 -13 -11 -30
-15 -16 -4 -30 -10 -30 -15 0 -4 -11 -11 -25 -14 -14 -4 -25 -11 -25 -16 0 -6
-7 -10 -15 -10 -9 0 -18 -7 -21 -15 -4 -8 -17 -15 -30 -15 -15 0 -24 -6 -24
-15 0 -10 -10 -15 -30 -15 -20 0 -30 -5 -30 -15 0 -9 -9 -15 -24 -15 -13 0
-26 -7 -30 -15 -3 -8 -12 -15 -21 -15 -8 0 -15 -4 -15 -10 0 -21 -20 -9 -26
15 -3 14 -10 25 -15 25 -5 0 -9 7 -9 15 0 8 -7 15 -15 15 -9 0 -15 9 -15 25 0
14 -7 28 -15 31 -8 4 -15 17 -15 30 0 14 -7 27 -15 30 -8 4 -15 17 -15 30 0
15 -6 24 -15 24 -9 0 -18 7 -21 15 -4 8 -10 15 -16 15 -5 0 -7 -3 -5 -7 3 -5
-14 -7 -36 -6 -117 7 -427 8 -427 2z"/>
<path d="M570 1196 c0 -9 -7 -16 -15 -16 -8 0 -15 -7 -15 -15 0 -8 -7 -15 -15
-15 -8 0 -15 -4 -15 -10 0 -5 -17 -27 -38 -48 -21 -21 -42 -46 -45 -56 -4 -9
-11 -14 -17 -11 -5 3 -10 0 -10 -9 0 -8 -13 -28 -30 -44 -16 -17 -30 -35 -30
-41 0 -6 -7 -11 -15 -11 -8 0 -15 -7 -15 -15 0 -8 -7 -15 -15 -15 -8 0 -15 -7
-15 -15 0 -8 -7 -15 -15 -15 -8 0 -15 -7 -15 -15 0 -8 -7 -15 -15 -15 -8 0
-15 -5 -15 -11 0 -7 -11 -22 -25 -35 -14 -13 -25 -28 -25 -34 0 -5 -7 -10 -15
-10 -8 0 -15 -6 -15 -14 0 -8 -13 -28 -30 -44 -16 -17 -30 -35 -30 -41 0 -6
-4 -11 -10 -11 -5 0 -10 -20 -10 -45 0 -25 5 -45 10 -45 6 0 10 -7 10 -15 0
-8 7 -15 15 -15 8 0 15 -7 15 -15 0 -8 7 -15 15 -15 8 0 15 -7 15 -16 0 -8 5
-12 10 -9 6 3 10 -1 10 -9 0 -9 7 -16 15 -16 8 0 15 -7 15 -15 0 -8 7 -15 15
-15 8 0 15 -7 15 -15 0 -8 7 -15 15 -15 8 0 15 -7 15 -15 0 -8 7 -15 15 -15 8
0 15 -7 15 -15 0 -8 7 -15 15 -15 8 0 15 -7 15 -16 0 -14 29 -16 292 -13 222
3 292 7 296 17 3 9 122 12 551 12 424 0 550 3 559 13 10 9 120 13 464 15 373
3 454 6 465 18 9 8 34 14 64 14 37 0 49 4 49 15 0 10 10 15 30 15 17 0 30 4
30 10 0 6 -462 11 -1333 12 l-1332 3 -41 43 c-23 23 -47 42 -53 42 -6 0 -11 7
-11 15 0 8 -7 15 -15 15 -8 0 -15 7 -15 15 0 8 -7 15 -15 15 -8 0 -15 7 -15
15 0 8 -7 15 -15 15 -10 0 -15 10 -15 30 0 20 5 30 15 30 9 0 15 9 15 25 0 16
6 25 15 25 8 0 15 9 15 20 0 11 4 20 10 20 5 0 12 11 16 25 3 14 10 25 15 25
5 0 9 7 9 15 0 8 9 24 20 35 11 11 20 25 20 30 0 6 5 10 10 10 6 0 10 6 10 14
0 8 6 21 14 28 7 8 17 24 20 36 4 12 12 20 17 17 5 -4 9 5 9 19 0 16 6 26 15
26 9 0 15 9 15 25 0 14 7 28 15 31 8 4 15 12 15 20 0 8 7 14 15 14 10 0 15 10
15 30 0 21 5 30 16 30 9 0 14 5 12 12 -6 18 -28 21 -28 4z"/>
</g>
</svg>
